<svg width="376" height="360" viewBox="0 0 376 360" fill="none" xmlns="http://www.w3.org/2000/svg">
<rect width="360" height="360" rx="32" fill="#C28A59"/>
<mask id="path-2-inside-1_85_25" fill="white">
<path d="M285.317 275.248C264.662 298.087 237.143 313.592 206.907 319.427C176.672 325.262 145.359 321.111 117.689 307.598C90.0183 294.086 67.4903 271.945 53.5005 244.513C39.5106 217.081 34.8171 185.844 40.1274 155.512C45.4377 125.18 60.464 97.3962 82.9413 76.3486C105.419 55.301 134.129 42.1303 164.744 38.8219C195.359 35.5136 226.22 42.2468 252.675 58.0067C279.13 73.7665 299.745 97.6989 311.412 126.196L252.25 150.419C245.835 134.751 234.501 121.593 219.956 112.928C205.412 104.264 188.444 100.562 171.612 102.381C154.78 104.199 138.995 111.441 126.637 123.013C114.279 134.585 106.018 149.86 103.098 166.537C100.179 183.213 102.759 200.387 110.451 215.469C118.142 230.551 130.528 242.724 145.741 250.153C160.954 257.582 178.17 259.865 194.794 256.657C211.417 253.449 226.547 244.924 237.903 232.367L285.317 275.248Z"/>
</mask>
<path d="M285.317 275.248C264.662 298.087 237.143 313.592 206.907 319.427C176.672 325.262 145.359 321.111 117.689 307.598C90.0183 294.086 67.4903 271.945 53.5005 244.513C39.5106 217.081 34.8171 185.844 40.1274 155.512C45.4377 125.18 60.464 97.3962 82.9413 76.3486C105.419 55.301 134.129 42.1303 164.744 38.8219C195.359 35.5136 226.22 42.2468 252.675 58.0067C279.13 73.7665 299.745 97.6989 311.412 126.196L252.25 150.419C245.835 134.751 234.501 121.593 219.956 112.928C205.412 104.264 188.444 100.562 171.612 102.381C154.78 104.199 138.995 111.441 126.637 123.013C114.279 134.585 106.018 149.86 103.098 166.537C100.179 183.213 102.759 200.387 110.451 215.469C118.142 230.551 130.528 242.724 145.741 250.153C160.954 257.582 178.17 259.865 194.794 256.657C211.417 253.449 226.547 244.924 237.903 232.367L285.317 275.248Z" stroke="#395144" stroke-width="128" mask="url(#path-2-inside-1_85_25)"/>
<path d="M316.959 157.154C317.579 160.529 314.693 163.511 311.299 163.002L205.463 147.118C201.441 146.514 199.784 141.618 202.612 138.696L289.119 49.3181C291.947 46.3961 296.895 47.8928 297.629 51.8924L316.959 157.154Z" fill="#395144"/>
<rect x="242.3" y="227" width="64" height="19" rx="5" transform="rotate(40.8797 242.3 227)" fill="#395144"/>
</svg>
